<svg xmlns="http://www.w3.org/2000/svg" width="100" height="100" viewBox="0 0 100 100" style="background:#fff">
  <path fill="none" stroke="#000000" stroke-width="4" d="M89.982921,33.8547673 C89.9942809,34.2235892 90,34.6052187 90,35 C90,57.09139 50,88 50,88 C50,88 10,57.09139 10,35 C10,34.6052187 10.0057191,34.2235892 10.017079,33.8547673 C10.0057291,33.5712553 10,33.2862967 10,33 C10,21.4020203 19.4020203,12 31,12 C39.3945395,12 46.638667,16.9254991 50,24.0441147 C53.361333,16.9254991 60.6054605,12 69,12 C80.5979797,12 90,21.4020203 90,33 C90,33.2862967 89.9942709,33.5712553 89.982921,33.8547673 L89.982921,33.8547673 Z" stroke-linejoin="round"/>
</svg>
