<svg xmlns="http://www.w3.org/2000/svg" width="375" height="667" viewBox="0 0 375 667" xmlns:xlink="http://www.w3.org/1999/xlink" style="background:#f5f5f5">
  <defs>
    <filter id="b" width="200%" height="200%" x="-50%" y="-50%" filterUnits="objectBoundingBox">
      <feOffset dx="-1" dy="1" in="SourceAlpha" result="shadowOffsetOuter1"/>
      <feGaussianBlur stdDeviation=".5" in="shadowOffsetOuter1" result="shadowBlurOuter1"/>
      <feColorMatrix values="0 0 0 0 0 0 0 0 0 0 0 0 0 0 0 0 0 0 0.2 0" in="shadowBlurOuter1" result="shadowMatrixOuter1"/>
      <feMerge>
        <feMergeNode in="shadowMatrixOuter1"/>
        <feMergeNode in="SourceGraphic"/>
      </feMerge>
    </filter>
    <linearGradient id="c" x1="0%" y1="0%" y2="100%">
      <stop stop-color="#6ABDE4" offset="0%"/>
      <stop stop-color="#52A4CB" offset="100%"/>
    </linearGradient>
    <circle id="e" cx="30" cy="30" r="30"/>
    <filter id="d" width="200%" height="200%" x="-50%" y="-50%" filterUnits="objectBoundingBox">
      <feOffset dy="2" in="SourceAlpha" result="shadowOffsetOuter1"/>
      <feGaussianBlur stdDeviation="2" in="shadowOffsetOuter1" result="shadowBlurOuter1"/>
      <feColorMatrix values="0 0 0 0 0 0 0 0 0 0 0 0 0 0 0 0 0 0 0.5 0" in="shadowBlurOuter1"/>
    </filter>
    <rect id="a" width="343" height="220"/>
    <mask id="f" width="343" height="220" x="0" y="0" fill="white">
      <use xlink:href="#a"/>
    </mask>
  </defs>
  <g fill="none" fill-rule="evenodd">
    <path fill="#58B2DC" d="M353.606847,47.3034233 C353.606847,42.1652845 349.441562,38 344.303423,38 C339.165285,38 335,42.1652845 335,47.3034233 C335,52.4415622 339.165285,56.6068467 344.303423,56.6068467 C349.441562,56.6068467 353.606847,52.4415622 353.606847,47.3034233 Z M337.400883,47.3034233 C337.400883,43.4912558 340.491256,40.4008834 344.303423,40.4008834 C348.115591,40.4008834 351.205963,43.4912558 351.205963,47.3034233 C351.205963,51.1155909 348.115591,54.2059632 344.303423,54.2059632 C340.491256,54.2059632 337.400883,51.1155909 337.400883,47.3034233 Z M356.950718,61.6483988 C357.419519,62.1172004 358.179597,62.1172004 358.648399,61.6483988 C359.1172,61.1795971 359.1172,60.4195195 358.648399,59.9507178 L353.555356,54.8576749 C353.086554,54.3888733 352.326477,54.3888733 351.857675,54.8576749 C351.388873,55.3264766 351.388873,56.0865542 351.857675,56.5553559 L356.950718,61.6483988 Z"/>
    <g fill="#030303">
      <path d="M346.493713,5.5 C345.668758,5.5 345,6.16802155 345,7.00530324 L345,13.4946968 C345,14.3260528 345.67338,15 346.493713,15 L366.006287,15 C366.831242,15 367.5,14.3319784 367.5,13.4946968 L367.5,7.00530324 C367.5,6.17394722 366.82662,5.5 366.006287,5.5 L346.493713,5.5 Z M368,8.5 L368,12 L368.75,12 C369.164214,12 369.5,11.6644053 369.5,11.25774 L369.5,9.24225998 C369.5,8.83232111 369.167101,8.5 368.75,8.5 L368,8.5 Z M346.508152,6 C345.951365,6 345.5,6.45699692 345.5,7.00844055 L345.5,13.4915594 C345.5,14.0485058 345.949058,14.5 346.508152,14.5 L365.991848,14.5 C366.548635,14.5 367,14.0430031 367,13.4915594 L367,7.00844055 C367,6.45149422 366.550942,6 365.991848,6 L346.508152,6 Z M346.506744,6.5 C346.226877,6.5 346,6.71637201 346,6.99209595 L346,13.5079041 C346,13.7796811 346.230225,14 346.506744,14 L365.993256,14 C366.273123,14 366.5,13.783628 366.5,13.5079041 L366.5,6.99209595 C366.5,6.72031886 366.269775,6.5 365.993256,6.5 L346.506744,6.5 Z"/>
      <text font-family=".SFNSText, .SF NS Text" font-size="12">
        <tspan x="311.854" y="15.5">100%</tspan>
      </text>
      <text font-family=".SFNSText, .SF NS Text" font-size="12">
        <tspan x="164.256" y="15.5">9:41 AM</tspan>
      </text>
      <path d="M96.1444208,12.4385043 C95.626374,11.8454456 94.8523616,11.4689119 93.987563,11.4689119 C93.1390073,11.4689119 92.3778594,11.8314341 91.8601652,12.4053177 L94.0225391,14.5 L96.1444208,12.4385043 Z M98.3234964,10.3214425 C97.2447794,9.19174563 95.7014387,8.48445596 93.987563,8.48445596 C92.2882723,8.48445596 90.7566264,9.17975893 89.6792698,10.2926936 L90.7692987,11.3486 C91.567205,10.5053708 92.713648,9.97668394 93.987563,9.97668394 C95.2768836,9.97668394 96.4356305,10.518235 97.2346215,11.3793293 L98.3234964,10.3214425 L98.3234964,10.3214425 Z M100.5,8.20687933 C98.8629578,6.53943672 96.5505699,5.5 93.987563,5.5 C91.4375103,5.5 89.1355496,6.52895605 87.5,8.18164431 L88.5895579,9.23709441 C89.9460798,7.85431655 91.8628921,6.99222798 93.987563,6.99222798 C96.1260026,6.99222798 98.0538809,7.86552609 99.4118698,9.26404272 L100.5,8.20687933 Z"/>
      <text font-family=".SFNSText, .SF NS Text" font-size="12">
        <tspan x="44" y="15.5">Sketch</tspan>
      </text>
      <path d="M9.25,13 C10.7687831,13 12,11.7687831 12,10.25 C12,8.73121694 10.7687831,7.5 9.25,7.5 C7.73121694,7.5 6.5,8.73121694 6.5,10.25 C6.5,11.7687831 7.73121694,13 9.25,13 Z M16.25,13 C17.7687831,13 19,11.7687831 19,10.25 C19,8.73121694 17.7687831,7.5 16.25,7.5 C14.7312169,7.5 13.5,8.73121694 13.5,10.25 C13.5,11.7687831 14.7312169,13 16.25,13 Z M23.25,13 C24.7687831,13 26,11.7687831 26,10.25 C26,8.73121694 24.7687831,7.5 23.25,7.5 C21.7312169,7.5 20.5,8.73121694 20.5,10.25 C20.5,11.7687831 21.7312169,13 23.25,13 Z M30.25,13 C31.7687831,13 33,11.7687831 33,10.25 C33,8.73121694 31.7687831,7.5 30.25,7.5 C28.7312169,7.5 27.5,8.73121694 27.5,10.25 C27.5,11.7687831 28.7312169,13 30.25,13 Z M37.25,13 C38.7687831,13 40,11.7687831 40,10.25 C40,8.73121694 38.7687831,7.5 37.25,7.5 C35.7312169,7.5 34.5,8.73121694 34.5,10.25 C34.5,11.7687831 35.7312169,13 37.25,13 Z"/>
    </g>
    <path fill="#58B2DC" d="M38.8,43.4 C39.4627417,43.4 40,42.8627417 40,42.2 C40,41.5372583 39.4627417,41 38.8,41 L17.2,41 C16.5372583,41 16,41.5372583 16,42.2 C16,42.8627417 16.5372583,43.4 17.2,43.4 L38.8,43.4 L38.8,43.4 Z M38.8,49.4 C39.4627417,49.4 40,48.8627417 40,48.2 C40,47.5372583 39.4627417,47 38.8,47 L17.2,47 C16.5372583,47 16,47.5372583 16,48.2 C16,48.8627417 16.5372583,49.4 17.2,49.4 L38.8,49.4 L38.8,49.4 Z M38.8,55.4 C39.4627417,55.4 40,54.8627417 40,54.2 C40,53.5372583 39.4627417,53 38.8,53 L17.2,53 C16.5372583,53 16,53.5372583 16,54.2 C16,54.8627417 16.5372583,55.4 17.2,55.4 L38.8,55.4 L38.8,55.4 Z"/>
    <g transform="translate(60 94)">
      <path fill="#CCCCCC" d="M178.666667,12 C178.666667,5.92486775 173.741799,1 167.666667,1 C161.591534,1 156.666667,5.92486775 156.666667,12 C156.666667,18.0751322 161.591534,23 167.666667,23 C173.741799,23 178.666667,18.0751322 178.666667,12 L178.666667,12 L178.666667,12 Z M167.666667,3.2 C172.526772,3.2 176.466667,7.1398942 176.466667,12 C176.466667,16.8601058 172.526772,20.8 167.666667,20.8 C162.806561,20.8 158.866667,16.8601058 158.866667,12 C158.866667,7.1398942 162.806561,3.2 167.666667,3.2 Z M166.591498,12.2334919 C166.626391,12.3949254 166.696719,12.5431677 166.793934,12.6696713 C166.890966,12.7963153 167.015955,12.9026147 167.162857,12.978101 C167.238807,13.0173015 167.31991,13.0479154 167.404883,13.068659 L170.569521,13.9166213 C171.156334,14.0738573 171.759504,13.7256165 171.91674,13.1388038 C172.073976,12.5519911 171.725736,11.9488204 171.138923,11.7915844 L168.766667,11.1559403 L168.766667,5.675 C168.766667,5.06748678 168.27418,4.575 167.666667,4.575 C167.059153,4.575 166.566667,5.06748678 166.566667,5.675 L166.566667,11.9762747 C166.564711,12.0637204 166.573291,12.1499836 166.591498,12.2334919 L166.591498,12.2334919 L166.591498,12.2334919 Z"/>
      <path fill="#58B2DC" d="M96.3833333,7.88567948 C96.3833333,4.11727951 93.7155236,1 90.3333333,1 C86.9511431,1 84.2833333,4.11727951 84.2833333,7.88567948 C84.2833333,11.4003448 87.4717606,14.771359 90.3333333,14.771359 C93.194906,14.771359 96.3833333,11.4003448 96.3833333,7.88567948 L96.3833333,7.88567948 L96.3833333,7.88567948 Z M86.4833333,7.88567948 C86.4833333,5.26528176 88.2479046,3.20341743 90.3333333,3.20341743 C92.4187621,3.20341743 94.1833333,5.26528176 94.1833333,7.88567948 C94.1833333,10.2093052 91.9524497,12.5679415 90.3333333,12.5679415 C88.714217,12.5679415 86.4833333,10.2093052 86.4833333,7.88567948 L86.4833333,7.88567948 Z M91.0107292,15.2946424 L90.6640784,15.8004338 L89.4264335,17.6062576 L91.2402332,17.6062576 L90.0025882,15.8004338 L89.6559375,15.2946424 L89.0440774,15.3234266 C83.1505567,15.60068 79.3333333,17.7825119 79.3333333,21.8982913 L79.3333333,23 L80.4333333,23 L100.233333,23 L101.333333,23 L101.333333,21.8982913 C101.333333,17.7825119 97.51611,15.60068 91.6225893,15.3234266 L91.0107292,15.2946424 L91.0107292,15.2946424 Z M99.1333333,21.8982913 L100.233333,20.7965826 L80.4333333,20.7965826 L81.5333333,21.8982913 C81.5333333,19.3214434 84.2764201,17.7535619 89.1472993,17.5244174 L88.1887885,17.0474102 L89.4264335,18.853234 L90.3333333,20.176474 L91.2402332,18.853234 L92.4778781,17.0474102 L91.5193673,17.5244174 C96.3902466,17.7535619 99.1333333,19.3214434 99.1333333,21.8982913 L99.1333333,21.8982913 Z"/>
      <path fill="#CCCCCC" d="M245.253305 23.8320873C245.560909 23.5345393 245.902793 23.1945201 246.270485 22.8171495 247.320394 21.7396045 248.370283 20.57534 249.352857 19.3639557 250.642752 17.7736851 251.719728 16.2203608 252.514632 14.7373913 253.473099 12.9492818 254 11.3064259 254 9.81710171 254 3.93575152 249.759842 0 244 0 238.240158 0 234 3.93575152 234 9.81710171 234 11.3064259 234.526901 12.9492818 235.485368 14.7373913 236.280272 16.2203608 237.357248 17.7736851 238.647143 19.3639557 239.629717 20.57534 240.679606 21.7396045 241.729515 22.8171495 242.097207 23.1945201 242.439091 23.5345393 242.746695 23.8320873 242.933286 24.0125782 243.068467 24.140149 243.143744 24.2096333L244 25 244.856256 24.2096333C244.931533 24.140149 245.066714 24.0125782 245.253305 23.8320873L245.253305 23.8320873zM244.856256 22.4215998C244.794815 22.364886 244.673648 22.2505406 244.501352 22.0838772 244.210811 21.8028346 243.886191 21.4799851 243.53611 21.120689 242.535238 20.0934718 241.534346 18.9835419 240.602857 17.8351392 239.40321 16.3561319 238.410875 14.9248853 237.697752 13.5944868 236.911631 12.1279043 236.5 10.8444557 236.5 9.81710171 236.5 5.32291804 239.590514 2.45427543 244 2.45427543 248.409486 2.45427543 251.5 5.32291804 251.5 9.81710171 251.5 10.8444557 251.088369 12.1279043 250.302248 13.5944868 249.589125 14.9248853 248.59679 16.3561319 247.397143 17.8351392 246.465654 18.9835419 245.464762 20.0934718 244.46389 21.120689 244.113809 21.4799851 243.789189 21.8028346 243.498648 22.0838772 243.326352 22.2505406 243.205185 22.364886 243.143744 22.4215998L244.856256 22.4215998zM247.75 8.589964C247.75 6.55677566 246.071068 4.90855086 244 4.90855086 241.928932 4.90855086 240.25 6.55677566 240.25 8.589964 240.25 10.6231523 241.928932 12.2713771 244 12.2713771 246.071068 12.2713771 247.75 10.6231523 247.75 8.589964zM242.75 8.589964C242.75 7.91223455 243.309644 7.36282628 244 7.36282628 244.690356 7.36282628 245.25 7.91223455 245.25 8.589964 245.25 9.26769344 244.690356 9.81710171 244 9.81710171 243.309644 9.81710171 242.75 9.26769344 242.75 8.589964zM4.79619646 21.6C4.81006455 21.6 4.80144882 11.0742857 4.80144882 11.0742857 4.80144882 10.411544 4.26429863 9.87428571 3.60169029 9.87428571L1.20217323 9.87428571 2.01173333 11.9599203 12.8095601 2.08563457 11.1904399 2.08563457 21.9882667 11.9599203 22.7978268 9.87428571 20.3983097 9.87428571C19.7357014 9.87428571 19.1985512 10.411544 19.1985512 11.0742857L19.1985512 21.5690706C19.1985512 21.5914917 14.3995171 21.6 14.3995171 21.6L15.5992756 22.8 15.5992756 19.0988462C15.5992756 17.7599972 14.5341595 16.6628571 13.2008975 16.6628571L10.7991025 16.6628571C9.46233878 16.6628571 8.40072441 17.7605576 8.40072441 19.0988462L8.40072441 22.8 9.60048294 21.6 4.79619646 21.6zM10.8002415 22.8L10.8002415 19.0988462C10.8002415 19.0685253 13.2008975 19.0628571 13.2008975 19.0628571 13.1928867 19.0628571 13.1997585 22.8 13.1997585 22.8 13.1997585 23.4627417 13.7369087 24 14.3995171 24L19.2038035 24C20.5301644 24 21.5980682 22.9027258 21.5980682 21.5690706L21.5980682 11.0742857 20.3983097 12.2742857 22.7978268 12.2742857C23.8927778 12.2742857 24.4154923 10.9276391 23.6073869 10.1886511L12.8095601.314365426C12.3512028-.104788475 11.6487972-.104788475 11.1904399.314365426L.392613123 10.1886511C-.415492274 10.9276391.107222211 12.2742857 1.20217323 12.2742857L3.60169029 12.2742857 2.40193176 11.0742857 2.40193176 21.5690706C2.40193176 22.8991422 3.46676789 24 4.79619646 24L9.60048294 24C10.2630913 24 10.8002415 23.4627417 10.8002415 22.8z"/>
    </g>
    <g filter="url(#b)" transform="translate(149 39)">
      <polygon fill="#4E9DC2" points="0 2.722 2.73 0 2.73 19.051 0 21.773"/>
      <polygon fill="url(#c)" points="0 2.722 9.556 17.691 12.287 14.969 2.73 0"/>
      <polygon fill="#4E9DC2" points="9.556 17.691 19.113 2.722 21.843 0 12.287 14.969"/>
      <polygon fill="#58B2DC" points="19.113 2.722 21.843 0 21.843 19.051 19.113 21.773"/>
      <polygon fill="#58B2DC" points="28.669 2.722 31.399 0 31.399 19.051 28.669 21.773"/>
      <g transform="translate(38.225)">
        <polygon fill="#4E9DC2" points="0 2.722 2.73 0 2.73 19.051 0 21.773"/>
        <polygon fill="url(#c)" points="0 2.722 13.652 21.773 16.382 19.051 2.73 0"/>
        <polygon fill="#58B2DC" points="13.652 2.722 16.382 0 16.382 19.051 13.652 21.773"/>
      </g>
      <g fill="#58B2DC" transform="translate(61.433 .68)">
        <polygon points="2.73 0 16.382 0 13.652 2.722 0 2.722"/>
        <polygon points="2.73 8.845 16.382 8.845 13.652 11.567 0 11.567"/>
        <polygon points="2.73 17.691 16.382 17.691 13.652 20.412 0 20.412"/>
      </g>
    </g>
    <g transform="translate(299 591)">
      <use fill="black" filter="url(#d)" xlink:href="#e"/>
      <use fill="#58B2DC" xlink:href="#e"/>
      <path fill="#FFFFFF" d="M31.2,28.8 L40.8,28.8 C41.4627417,28.8 42,29.3372583 42,30 C42,30.6627417 41.4627417,31.2 40.8,31.2 L31.2,31.2 L31.2,40.8 C31.2,41.4627417 30.6627417,42 30,42 C29.3372583,42 28.8,41.4627417 28.8,40.8 L28.8,31.2 L19.2,31.2 C18.5372583,31.2 18,30.6627417 18,30 C18,29.3372583 18.5372583,28.8 19.2,28.8 L28.8,28.8 L28.8,19.2 C28.8,18.5372583 29.3372583,18 30,18 C30.6627417,18 31.2,18.5372583 31.2,19.2 L31.2,28.8 Z"/>
    </g>
    <g transform="translate(16 185)">
      <use fill="#EDEDED" stroke="#D8D8D8" stroke-width="8" mask="url(#f)" xlink:href="#a"/>
      <g transform="translate(228 72)">
        <g transform="translate(24.706 62.794)">
          <rect width="20.588" height="20.588" fill="#F9E5C6"/>
          <path fill="#EDD7B6" d="M20.5882353,11.1829625 C17.3793169,12.6056836 13.9118691,13.3823529 10.2941176,13.3823529 C6.67636623,13.3823529 3.20891837,12.6056836 2.34479103e-13,11.1829625 L2.01150469e-11,5.14705882 L20.5882353,5.14705882 L20.5882353,11.1829625 L20.5882353,11.1829625 Z"/>
        </g>
        <path fill="#F9E5C6" d="M64.8529412,36.0294118 C64.8529412,16.1309171 51.4873241,0 35,0 C18.5126759,0 5.14705882,16.1309171 5.14705882,36.0294118 C2.30441673,36.0294118 0,39.0251535 0,42.7205882 C0,46.416023 2.30441673,49.4117647 5.14705882,49.4117647 C5.84239069,49.4117647 6.50551898,49.2325209 7.11059447,48.9076371 C11.404996,62.4458839 22.2723345,72.0588235 35,72.0588235 C47.7276655,72.0588235 58.595004,62.4458839 62.8894055,48.9076371 C63.494481,49.2325209 64.1576093,49.4117647 64.8529412,49.4117647 C67.6955833,49.4117647 70,46.416023 70,42.7205882 C70,39.0251535 67.6955833,36.0294118 64.8529412,36.0294118 L64.8529412,36.0294118 Z"/>
        <path fill="#1F1F1F" d="M64.8529412,36.0294118 C64.8529412,16.1309171 51.4873241,0 35,0 C18.5126759,0 5.14705882,16.1309171 5.14705882,36.0294118 C5.14705882,38.1353192 5.29676066,40.1990278 5.58402141,42.2058824 C7.29050455,30.2840887 13.7773305,20.2778672 22.6470588,15.4411765 L47.3529412,15.4411765 C56.2105063,20.2826555 62.7110346,30.2948415 64.4159786,42.2058824 C64.7032393,40.1990278 64.8529412,38.1353192 64.8529412,36.0294118 Z"/>
        <path stroke="#4A4A4A" stroke-width="2" d="M24.7058824,48.3823529 C28.6855813,48.3823529 31.9117647,45.1561695 31.9117647,41.1764706 C31.9117647,37.1967717 28.6855813,33.9705882 24.7058824,33.9705882 C20.7261834,33.9705882 17.5,37.1967717 17.5,41.1764706 C17.5,45.1561695 20.7261834,48.3823529 24.7058824,48.3823529 Z M45.2941176,48.3823529 C49.2738166,48.3823529 52.5,45.1561695 52.5,41.1764706 C52.5,37.1967717 49.2738166,33.9705882 45.2941176,33.9705882 C41.3144187,33.9705882 38.0882353,37.1967717 38.0882353,41.1764706 C38.0882353,45.1561695 41.3144187,48.3823529 45.2941176,48.3823529 Z M31.9117647,41.1764706 L38.0882353,41.1764706 L31.9117647,41.1764706 Z"/>
        <path fill="#F18779" d="M29.8529412,57.6470588 C29.8529412,60.4897009 32.3668503,62.7941176 35.4679144,62.7941176 C38.5689785,62.7941176 41.0828877,60.4897009 41.0828877,57.6470588 L29.8529412,57.6470588 Z"/>
        <g transform="translate(6.176 77.206)">
          <path fill="#51A8DC" d="M0,66.9117647 L0,23.825261 C0,10.6669327 4.59457485,0 18.8843813,0 C18.8843813,0 27.9222324,6.04913505 28.8235294,6.04913505 C29.9035295,6.04913505 38.7626775,0 38.7626775,0 C53.040113,0 57.6470588,10.6755109 57.6470588,23.825261 L57.6470588,66.9117647 L0,66.9117647 Z"/>
          <path fill="#0B588D" d="M29.3382353,8.82352941 L17.5,2.05882353 L17.5,18.5294118 L29.3382353,11.7647059 L41.1764706,18.5294118 L41.1764706,2.05882353 L29.3382353,8.82352941 Z"/>
        </g>
      </g>
      <g transform="translate(136 71)">
        <rect width="65.655" height="84" fill="#2F0606" rx="32.828"/>
        <g transform="translate(23 66)">
          <rect width="20" height="20" fill="#F9E5C6"/>
          <path fill="#EDD7B6" d="M20,10.8634493 C16.882765,12.2455212 13.5143871,13 10,13 C6.48561291,13 3.11723498,12.2455212 2.27373675e-13,10.8634493 L1.95399252e-11,5 L20,5 L20,10.8634493 L20,10.8634493 Z"/>
        </g>
        <path fill="#F9E5C6" d="M33,75 C49.0162577,75 62,59.3299662 62,40 C62,38.3505233 62.3483305,41.7752885 44,33 C28,23 29,19 29,19 C29,19 29.6149607,22.6253444 23,28 C7,41 4,30.6726795 4,40 C4,59.3299662 16.9837423,75 33,75 Z"/>
        <g fill="#2A0900" transform="translate(21 42)">
          <circle cx="3" cy="3" r="3"/>
          <circle cx="21" cy="3" r="3"/>
        </g>
        <path fill="#F18779" d="M28,60 C28,62.7614237 30.4420832,65 33.4545455,65 C36.4670077,65 38.9090909,62.7614237 38.9090909,60 L28,60 Z"/>
        <g transform="translate(5 80)">
          <path fill="#81C7D4" d="M0,65 L0,23.1445393 C0,10.3621632 4.46330128,0 18.3448276,0 C18.3448276,0 27.1244544,5.87630262 28,5.87630262 C29.0491429,5.87630262 37.6551724,0 37.6551724,0 C51.5246812,0 56,10.3704963 56,23.1445393 L56,65 L0,65 Z"/>
          <circle cx="28" cy="15" r="2" fill="#FFFFFF"/>
          <circle cx="28" cy="23" r="2" fill="#FFFFFF"/>
          <circle cx="28" cy="31" r="2" fill="#FFFFFF"/>
          <circle cx="28" cy="39" r="2" fill="#FFFFFF"/>
        </g>
      </g>
      <g transform="translate(43 65)">
        <g transform="translate(24 69)">
          <rect width="20" height="25" fill="#F9E5C6"/>
          <path fill="#EDD7B6" d="M20,10.8634493 C16.882765,12.2455212 13.5143871,13 10,13 C6.48561291,13 3.11723498,12.2455212 -2.27373675e-13,10.8634493 L1.90851779e-11,5 L20,5 L20,10.8634493 L20,10.8634493 Z"/>
        </g>
        <path fill="#F9E5C6" d="M62.9534591,41.0002757 C62.0947288,22.6007682 49.4601583,8 34,8 C18.5398417,8 5.90527121,22.6007682 5.04654086,41.0002757 C5.03104398,41.000092 5.01553026,41 5,41 C2.23857625,41 0,43.9101491 0,47.5 C0,51.0898509 2.23857625,54 5,54 C5.48311178,54 5.95022047,53.9109273 6.39213865,53.7447256 C10.1495493,67.8180652 21.0895542,78 34,78 C46.9104458,78 57.8504507,67.8180652 61.6078613,53.7447256 C62.0497795,53.9109273 62.5168882,54 63,54 C65.7614237,54 68,51.0898509 68,47.5 C68,43.9101491 65.7614237,41 63,41 C62.9844697,41 62.968956,41.000092 62.9534591,41.0002757 L62.9534591,41.0002757 Z"/>
        <path fill="#1F1F1F" d="M34,36 C48.3594035,36 60,29.7093224 60,21.9512195 C60,12.2926829 55.84,0 55.84,0 C55.84,0 52,8 34,7.90243902 C19.6410365,7.82461266 8,14.1922923 8,21.9512195 C8,29.7101467 19.6405965,36 34,36 Z"/>
        <g fill="#2A0900" transform="translate(21 46)">
          <circle cx="3" cy="3" r="3"/>
          <circle cx="23" cy="3" r="3"/>
        </g>
        <path fill="#F18779" d="M29,63 C29,65.7614237 31.4420832,68 34.4545455,68 C37.4670077,68 39.9090909,65.7614237 39.9090909,63 L29,63 Z"/>
        <g transform="translate(5 84)">
          <path fill="#58B2DC" d="M0,67 L0,25.1445393 C0,12.3621632 4.6227049,2 19,2 C19,2 28.0931849,7.87630262 29,7.87630262 C30.0866123,7.87630262 39,2 39,2 C53.3648484,2 58,12.3704963 58,25.1445393 L58,67 L0,67 Z"/>
          <polygon fill="#4E9DC2" points="18 0 11 3 23 18 29 8"/>
          <polygon fill="#4E9DC2" points="36 0 29 3 41 18 47 8" transform="matrix(-1 0 0 1 76 0)"/>
        </g>
      </g>
    </g>
    <text fill="#58B2DC" font-family="NotoSansCJKtc-Regular, Noto Sans CJK TC" font-size="20" letter-spacing="1.667">
      <tspan x="94" y="464">喔不！找不到朋友..</tspan>
    </text>
    <text fill="#1F1F1F" font-family="NotoSansCJKtc-Regular, Noto Sans CJK TC" font-size="16" letter-spacing="1.333">
      <tspan x="92" y="505">請試著上傳有人物的照片</tspan>
    </text>
  </g>
</svg>
