<svg xmlns="http://www.w3.org/2000/svg" width="140" height="140" viewBox="0 0 140 140" xmlns:xlink="http://www.w3.org/1999/xlink" style="background:#fff">
  <defs>
    <rect id="a" width="100" height="100" x="20" y="20"/>
    <mask id="c" width="100" height="100" x="0" y="0" fill="white">
      <use xlink:href="#a"/>
    </mask>
    <rect id="b" width="80" height="80" x="30" y="30"/>
    <mask id="d" width="80" height="80" x="0" y="0" fill="white">
      <use xlink:href="#b"/>
    </mask>
  </defs>
  <g fill="none" fill-rule="evenodd">
    <use stroke="#979797" stroke-width="2" mask="url(#c)" xlink:href="#a"/>
    <use stroke="#DD4B39" stroke-width="2" mask="url(#d)" xlink:href="#b"/>
    <path stroke="#000000" stroke-width="4" d="M54,47 C56.492475,45.5871256 58.9150245,44.390901 62,44 L62,34 C62.2481604,33.6593331 62.9896123,33 64,33 L76,33 C77.0158332,33 77.7523112,33.6638902 78,34 L78,44 C81.0851043,44.3908967 83.5076543,45.5871205 86,47 L93,42 C93.888565,41.4324416 94.8686302,41.5925409 95,42 L103,52 C103.695617,52.4705371 103.642094,53.4595102 103,54 L96,61 C96.995597,62.8829449 97.5419798,65.3983831 98,68 L107,71 C107.670891,71.1043668 108.147859,71.9736468 108,73 L105,85 C104.992646,85.6122608 104.178766,86.1790439 103,86 L94,85 C92.3490618,86.6363108 90.7979575,88.5232762 89,90 L93,99 C93.0059726,100.152253 92.6291884,101.069221 92,101 L81,107 C80.0225046,107.205262 79.0689323,106.930748 79,106 L74,97 C72.3772867,97.624582 71.1975216,97.7001349 70,98 C68.8026207,97.7001349 67.6228593,97.6245825 66,97 L61,106 C60.9289052,106.934698 59.9728642,107.20294 59,107 L48,101 C47.3661804,101.066899 46.9958686,100.148012 47,99 L51,90 C49.2021881,88.5232841 47.651083,86.6363191 46,85 L37,86 C35.816848,86.1797452 35.0062988,85.6071006 35,85 L32,73 C31.8510856,71.9684865 32.3336224,71.1030178 33,71 L42,68 C42.4581571,65.3983937 43.0045389,62.8829554 44,61 L37,54 C36.3547049,53.456384 36.3078614,52.4664213 37,52 L45,42 C45.1348482,41.5884251 46.1153321,41.4350513 47,42 L54,47 L54,47 L54,47 L54,47 L54,47 L54,47 Z M70,85 C78.2842712,85 85,78.2842712 85,70 C85,61.7157288 78.2842712,55 70,55 C61.7157288,55 55,61.7157288 55,70 C55,78.2842712 61.7157288,85 70,85 L70,85 L70,85 L70,85 L70,85 L70,85 Z"/>
    <text fill="#979797" font-family="NotoSerif, Noto Serif" font-size="8" letter-spacing=".667">
      <tspan x="57.357" y="130">100px</tspan>
    </text>
    <text fill="#DD4B39" font-family="NotoSerif, Noto Serif" font-size="8" letter-spacing=".667">
      <tspan x="59.426" y="118">80px</tspan>
    </text>
    <path stroke="#979797" d="M20.5,120 L20.5,132" stroke-linecap="square"/>
    <path stroke="#DD4B39" d="M30.5 109.5L30.5 118.5M109.5 109.5L109.5 118.5" stroke-linecap="square"/>
    <path stroke="#979797" d="M119.5,120 L119.5,132" stroke-linecap="square"/>
  </g>
</svg>
