<svg xmlns="http://www.w3.org/2000/svg" width="140" height="140" viewBox="0 0 140 140" xmlns:xlink="http://www.w3.org/1999/xlink" style="background:#fff">
  <defs>
    <rect id="a" width="60" height="60" x="40" y="40"/>
    <mask id="c" width="60" height="60" x="0" y="0" fill="white">
      <use xlink:href="#a"/>
    </mask>
    <rect id="b" width="40" height="40" x="50" y="50"/>
    <mask id="d" width="40" height="40" x="0" y="0" fill="white">
      <use xlink:href="#b"/>
    </mask>
  </defs>
  <g fill="none" fill-rule="evenodd">
    <use stroke="#979797" stroke-width="2" mask="url(#c)" xlink:href="#a"/>
    <use stroke="#DD4B39" stroke-width="2" mask="url(#d)" xlink:href="#b"/>
    <text fill="#979797" font-family="NotoSerif, Noto Serif" font-size="8" letter-spacing=".667">
      <tspan x="59.426" y="109">60px</tspan>
    </text>
    <text fill="#DD4B39" font-family="NotoSerif, Noto Serif" font-size="8" letter-spacing=".667">
      <tspan x="59.426" y="97">40px</tspan>
    </text>
    <path stroke="#979797" d="M40.5,99 L40.5,111" stroke-linecap="square"/>
    <path stroke="#DD4B39" d="M50.5 89.5L50.5 98.5M89.5 89.5L89.5 98.5" stroke-linecap="square"/>
    <path stroke="#979797" d="M99.5,99 L99.5,111" stroke-linecap="square"/>
    <path stroke="#000000" stroke-width="4" d="M62.9194461,59.874781 C64.1462733,59.033592 65.5333848,58.4091538 67.0255737,58.0566732 L67.0255737,53 L73.6444245,53 L73.6444245,58.3206094 C74.9787149,58.7516458 76.2132492,59.404601 77.3045218,60.2359692 L81.5368536,56.8086946 L85.7022314,61.9525078 L81.3027272,65.515156 C81.7707692,66.7028676 82.0592027,67.9810081 82.1345653,69.3161153 L87.6699982,70.5940707 L86.1810807,77.0432808 L80.7223933,75.7830435 C80.0919977,76.9685036 79.2731818,78.038508 78.3058909,78.9531114 L80.7153651,83.8932656 L74.7663814,86.7947788 L72.4472128,82.0397786 C71.6137457,82.2181623 70.7489496,82.3120538 69.862224,82.3120538 C69.2804352,82.3120538 68.7080867,82.2716354 68.1478331,82.1934535 L65.9036168,86.7947788 L59.9546331,83.8932656 L62.0801057,79.5354008 C60.8783068,78.5513602 59.8663242,77.3441319 59.1074504,75.9770085 L54.4889175,77.0432808 L53,70.5940707 L57.5793904,69.5368351 C57.6424716,67.9044841 58.0238645,66.3537836 58.6632508,64.9450517 L54.9677668,61.9525078 L59.1331446,56.8086946 L62.9194461,59.874781 L62.9194461,59.874781 Z M69.862224,74.7476528 C72.4732886,74.7476528 74.5899746,72.6309668 74.5899746,70.0199022 C74.5899746,67.4088376 72.4732886,65.2921516 69.862224,65.2921516 C67.2511595,65.2921516 65.1344734,67.4088376 65.1344734,70.0199022 C65.1344734,72.6309668 67.2511595,74.7476528 69.862224,74.7476528 Z"/>
  </g>
</svg>
