<svg xmlns="http://www.w3.org/2000/svg" width="100" height="100" viewBox="0 0 100 100" style="background:#fff">
  <path fill="none" stroke="#000000" stroke-width="4" d="M33.4556744,24.8512819 C35.7651685,23.2675108 38.3136,22.0066254 41.0358376,21.1337354 L41.7555398,11.5522649 C41.8199345,10.6949727 42.5999142,10 43.4851806,10 L56.4641149,10 C57.3549745,10 58.1297218,10.6997762 58.1937556,11.5522649 L58.9134576,21.1337319 C61.6356956,22.0066209 64.1841276,23.2675054 66.4936223,24.8512756 L74.397643,19.3777204 C75.1044578,18.8882493 76.1354498,19.0570025 76.6925659,19.7449334 L84.860474,29.8307213 C85.4211101,30.5229985 85.3648063,31.5654296 84.7425474,32.1516782 L77.46842,39.0048487 C78.3729394,41.4982393 78.9477137,44.1496471 79.1400625,46.9064092 L88.7820542,49.9084739 C89.6029496,50.1640623 90.1047025,51.0803304 89.9055609,51.9428443 L86.9859359,64.5882035 C86.7855361,65.4561668 85.929365,66.0535868 85.0842602,65.9242066 L74.8377556,64.3555318 C73.484958,66.5355709 71.8532543,68.5245344 69.9924698,70.2726103 L73.8580414,79.9833491 C74.1760036,80.7821049 73.7796407,81.7486378 72.9839686,82.1366847 L61.3185797,87.8258584 C60.5178804,88.216357 59.5147579,87.9270043 59.0834709,87.188861 L53.6930961,77.9632905 C52.4753968,78.1178026 51.2343281,78.1974395 49.974653,78.1974395 C48.7149818,78.1974395 47.4739168,78.1178031 46.2562212,77.963292 L40.8658446,87.1888656 C40.4321274,87.9311681 39.4264079,88.2139099 38.6307358,87.825863 L26.9653469,82.1366893 C26.1646476,81.7461907 25.7750934,80.777634 26.0912741,79.9833537 L29.9568444,70.2726181 C28.0960591,68.5245427 26.4643545,66.5355796 25.1115594,64.355541 L14.8650482,65.9242169 C14.0151815,66.0543261 13.162514,65.4507276 12.9633724,64.5882137 L10.0437475,51.9428545 C9.84334766,51.0748912 10.3509583,50.1626404 11.1672542,49.9084841 L20.8092427,46.9064205 C21.0015905,44.1496582 21.5763637,41.4982503 22.4808821,39.0048595 L15.206752,32.1516863 C14.5809868,31.5621345 14.5317092,30.5186603 15.0888254,29.8307295 L23.2567334,19.7449415 C23.8173695,19.0526643 24.8488019,18.891 25.5516564,19.3777286 L33.4556744,24.8512819 L33.4556744,24.8512819 L33.4556744,24.8512819 L33.4556744,24.8512819 L33.4556744,24.8512819 L33.4556744,24.8512819 Z M49.9745801,64.5994264 C58.5907625,64.5994264 65.5755584,57.6151419 65.5755584,48.9995903 C65.5755584,40.3840387 58.5907625,33.3997542 49.9745801,33.3997542 C41.3583977,33.3997542 34.3736018,40.3840387 34.3736018,48.9995903 C34.3736018,57.6151419 41.3583977,64.5994264 49.9745801,64.5994264 L49.9745801,64.5994264 L49.9745801,64.5994264 L49.9745801,64.5994264 L49.9745801,64.5994264 L49.9745801,64.5994264 Z"/>
</svg>
