<svg width="375px" height="667px" viewBox="0 0 375 667" version="1.1" xmlns="http://www.w3.org/2000/svg" xmlns:xlink="http://www.w3.org/1999/xlink">
    <defs>
        <linearGradient x1="50%" y1="112.057297%" x2="50%" y2="0%" id="linearGradient-1">
            <stop stop-color="#81C7D4" offset="0%"></stop>
            <stop stop-color="#58B2DC" offset="100%"></stop>
        </linearGradient>
        <rect id="path-2" x="0" y="0" width="375" height="667"></rect>
        <filter x="-50%" y="-50%" width="200%" height="200%" filterUnits="objectBoundingBox" id="filter-3">
            <feOffset dx="0" dy="1" in="SourceAlpha" result="shadowOffsetOuter1"></feOffset>
            <feGaussianBlur stdDeviation="2" in="shadowOffsetOuter1" result="shadowBlurOuter1"></feGaussianBlur>
            <feColorMatrix values="0 0 0 0 0   0 0 0 0 0   0 0 0 0 0  0 0 0 0.5 0" type="matrix" in="shadowBlurOuter1"></feColorMatrix>
        </filter>
        <text id="text-4" font-family="NotoSansCJKtc-Regular, Noto Sans CJK TC" font-size="24" font-weight="normal" letter-spacing="1.79999995" fill="#FFFFFF">
            <tspan x="75" y="28">隱私保證</tspan>
        </text>
        <filter x="-50%" y="-50%" width="200%" height="200%" filterUnits="objectBoundingBox" id="filter-5">
            <feOffset dx="0" dy="1" in="SourceAlpha" result="shadowOffsetOuter1"></feOffset>
            <feGaussianBlur stdDeviation="1" in="shadowOffsetOuter1" result="shadowBlurOuter1"></feGaussianBlur>
            <feColorMatrix values="0 0 0 0 0.290196078   0 0 0 0 0.290196078   0 0 0 0 0.290196078  0 0 0 0.5 0" type="matrix" in="shadowBlurOuter1"></feColorMatrix>
        </filter>
        <filter x="-50%" y="-50%" width="200%" height="200%" filterUnits="objectBoundingBox" id="filter-6">
            <feOffset dx="0" dy="1" in="SourceAlpha" result="shadowOffsetOuter1"></feOffset>
            <feGaussianBlur stdDeviation="1" in="shadowOffsetOuter1" result="shadowBlurOuter1"></feGaussianBlur>
            <feColorMatrix values="0 0 0 0 0.290196078   0 0 0 0 0.290196078   0 0 0 0 0.290196078  0 0 0 0.5 0" type="matrix" in="shadowBlurOuter1" result="shadowMatrixOuter1"></feColorMatrix>
            <feMerge>
                <feMergeNode in="shadowMatrixOuter1"></feMergeNode>
                <feMergeNode in="SourceGraphic"></feMergeNode>
            </feMerge>
        </filter>
        <filter x="-50%" y="-50%" width="200%" height="200%" filterUnits="objectBoundingBox" id="filter-7">
            <feOffset dx="0" dy="1" in="SourceAlpha" result="shadowOffsetOuter1"></feOffset>
            <feGaussianBlur stdDeviation="1" in="shadowOffsetOuter1" result="shadowBlurOuter1"></feGaussianBlur>
            <feColorMatrix values="0 0 0 0 0.290196078   0 0 0 0 0.290196078   0 0 0 0 0.290196078  0 0 0 0.5 0" type="matrix" in="shadowBlurOuter1" result="shadowMatrixOuter1"></feColorMatrix>
            <feMerge>
                <feMergeNode in="shadowMatrixOuter1"></feMergeNode>
                <feMergeNode in="SourceGraphic"></feMergeNode>
            </feMerge>
        </filter>
        <filter x="-50%" y="-50%" width="200%" height="200%" filterUnits="objectBoundingBox" id="filter-8">
            <feOffset dx="0" dy="1" in="SourceAlpha" result="shadowOffsetOuter1"></feOffset>
            <feGaussianBlur stdDeviation="1" in="shadowOffsetOuter1" result="shadowBlurOuter1"></feGaussianBlur>
            <feColorMatrix values="0 0 0 0 0.290196078   0 0 0 0 0.290196078   0 0 0 0 0.290196078  0 0 0 0.5 0" type="matrix" in="shadowBlurOuter1" result="shadowMatrixOuter1"></feColorMatrix>
            <feMerge>
                <feMergeNode in="shadowMatrixOuter1"></feMergeNode>
                <feMergeNode in="SourceGraphic"></feMergeNode>
            </feMerge>
        </filter>
    </defs>
    <style>
    #title2 {
        transform: translateY(200px);
        animation: show-text 1s ease-out forwards;
    }
    
    #content2 {
        transform: translateY(200px);
        animation: show-text 1s .1s ease-out forwards;
    }
    
    #pics {
        opacity: 0;
        animation: show-pics 2s 1s ease-out forwards;
    }
    
    #lock {
        transform: translate(117px, 800px);
        animation: show-lock 1s 1.5s ease-out forwards;
    }
    
    #lock2 {
        transform: translate(131px, -800px);
        animation: show-lock2 1s 1.5s ease-out forwards;
    }
    
    @-webkit-keyframes show-text {
        0% {
            transform: translateY(200px);
            opacity: 0;
        }
        100% {
            transform: translateY(0px);
            opacity: 1;
        }
    }
    
    @-webkit-keyframes show-pics {
        0% {
            opacity: 0;
        }
        100% {
            opacity: 0.5;
        }
    }
    
    @-webkit-keyframes show-lock {
        0% {
            transform: translate(117px, 800px);
        }
        90% {
            transform: translate(117px, 251px);
        }
        95% {
            transform: translate(117px, 241px);
        }
        100% {
            transform: translate(117px, 251px);
        }
    }
    
    @-webkit-keyframes show-lock2 {
        0% {
            transform: translate(117px, -800px);
        }
        90% {
            transform: translate(131px, 172px);
        }
        95% {
            transform: translate(131px, 182px);
        }
        100% {
            transform: translate(131px, 172px);
        }
    }
    </style>
    <g id="design" stroke="none" stroke-width="1" fill="none" fill-rule="evenodd">
        <g id="welcome_page2">
            <g id="bg">
                <use fill="black" fill-opacity="1" filter="url(#filter-3)" xlink:href="#path-2"></use>
                <use fill="url(#linearGradient-1)" fill-rule="evenodd" xlink:href="#path-2"></use>
            </g>
            <g id="introduce" transform="translate(60.000000, 470.000000)" fill="#FFFFFF">
                <g id="title2" fill-opacity="1">
                    <use filter="url(#filter-5)" xlink:href="#text-4"></use>
                    <use xlink:href="#text-4"></use>
                </g>
                <text id="content2" font-family="NotoSansCJKtc-Regular, Noto Sans CJK TC" font-size="18" font-weight="normal" line-spacing="27" letter-spacing="1.5">
                    <tspan x="0" y="77">透過最安全的方式讓使用者不</tspan>
                    <tspan x="0" y="104">用擔心隱私被窺探</tspan>
                </text>
            </g>
            <g id="pics" opacity="0.5" transform="translate(65.000000, 186.000000)">
                <g id="p3" filter="url(#filter-6)" transform="translate(1.000000, 0.000000)">
                    <rect id="Rectangle-8" stroke="#FFFFFF" stroke-width="10" x="0" y="0" width="243" height="182.270916" rx="8"></rect>
                    <rect id="Rectangle-8" fill="#FFFFFF" x="10.692" y="10.7074468" width="221.616" height="161.341755" rx="2"></rect>
                    <path d="M75.087,159.31383 L74.844,159.638298 L220.644,159.638298 L147.744,62.2978723 L97.8075,128.976064 L71.928,94.4202128 L23.328,159.31383 L75.087,159.31383 L75.087,159.31383 Z M44.226,65.2180851 C55.7676467,65.2180851 65.124,55.8482146 65.124,44.2898936 C65.124,32.7315726 55.7676467,23.3617021 44.226,23.3617021 C32.6843533,23.3617021 23.328,32.7315726 23.328,44.2898936 C23.328,55.8482146 32.6843533,65.2180851 44.226,65.2180851 L44.226,65.2180851 Z" id="Combined-Shape" fill="#CCCCCC" style="mix-blend-mode: multiply;"></path>
                </g>
                <g id="p2" filter="url(#filter-7)" transform="translate(111.000000, 100.000000) scale(-1, 1) translate(-111.000000, -100.000000) translate(0.000000, 17.000000)">
                    <rect id="Rectangle-8" stroke="#0B588D" stroke-width="10" x="0" y="0" width="221.43617" height="165.856574" rx="8"></rect>
                    <rect id="Rectangle-8" fill="#0B588D" x="9.74319149" y="9.74319149" width="201.949787" height="146.812181" rx="2"></rect>
                    <path d="M68.4237766,144.966879 L68.2023404,145.262128 L201.064043,145.262128 L134.633191,56.6876596 L89.1280585,117.36117 L65.5451064,85.917234 L21.2578723,144.966879 L68.4237766,144.966879 L68.4237766,144.966879 Z M40.301383,59.3448936 C50.8188235,59.3448936 59.3448936,50.8188235 59.3448936,40.301383 C59.3448936,29.7839425 50.8188235,21.2578723 40.301383,21.2578723 C29.7839425,21.2578723 21.2578723,29.7839425 21.2578723,40.301383 C21.2578723,50.8188235 29.7839425,59.3448936 40.301383,59.3448936 L40.301383,59.3448936 Z" id="Combined-Shape" fill="#CCCCCC" style="mix-blend-mode: multiply;"></path>
                </g>
                <g id="p1" filter="url(#filter-8)" transform="translate(101.000000, 108.200000) scale(-1, 1) translate(-101.000000, -108.200000) translate(1.000000, 33.000000)">
                    <rect id="Rectangle-8" stroke="#4E9DC2" stroke-width="10" x="0" y="0" width="200" height="149.800797" rx="8"></rect>
                    <rect id="Rectangle-8" fill="#4E9DC2" x="8.8" y="8.8" width="182.4" height="132.6" rx="2"></rect>
                    <path d="M61.8,130.933333 L61.6,131.2 L181.6,131.2 L121.6,51.2 L80.5,106 L59.2,77.6 L19.2,130.933333 L61.8,130.933333 L61.8,130.933333 Z M36.4,53.6 C45.8992977,53.6 53.6,45.8992977 53.6,36.4 C53.6,26.9007023 45.8992977,19.2 36.4,19.2 C26.9007023,19.2 19.2,26.9007023 19.2,36.4 C19.2,45.8992977 26.9007023,53.6 36.4,53.6 L36.4,53.6 Z" id="Combined-Shape" fill="#CCCCCC" style="mix-blend-mode: multiply;"></path>
                </g>
            </g>
            <g id="lock2" transform="translate(131.000000, 172.000000)">
                <path d="M22.6153846,37.0654394 L22.5562619,38.0730279 C22.5640803,38.0539915 22.5931568,37.9040343 22.6347638,37.7173747 C22.7731141,37.0967015 22.9825793,36.368398 23.2759262,35.5604901 C24.1498296,33.153669 25.5116194,30.7191269 27.4621897,28.4344518 C33.3598265,21.5266341 43.3510084,17.2307692 59.2289003,17.2307692 C75.1074598,17.2307692 85.0998884,21.5257576 90.9986574,28.4319572 C92.9494696,30.7159419 94.3114878,33.1496578 95.1856267,35.5556012 C95.4790343,36.3631641 95.6885566,37.0911352 95.8269572,37.7114996 C95.868574,37.898042 95.8976572,38.0478913 95.9159492,38.1574218 C95.9189517,38.1754005 95.8461539,37.0571988 95.8461539,37.0571988 L95.842416,102.307199 L113.073185,102.308186 L113.076923,37.0581858 L113.076952,36.5517123 L113.017638,36.048724 C112.958019,35.543152 112.840252,34.8379816 112.644295,33.9596242 C112.348931,32.6356902 111.934897,31.1971574 111.38061,29.6715623 C109.832766,25.4113398 107.464094,21.1788898 104.10074,17.2411197 C94.8161761,6.37087701 79.9941258,-3.06079948e-14 59.2289003,0 C38.4630072,3.06079948e-14 23.6411119,6.37290567 14.3577521,17.2463722 C10.9949736,21.1851466 8.62694948,25.4185861 7.07974568,29.6797466 C6.52570504,31.2056322 6.11189874,32.6444228 5.81673995,33.9685775 C5.62092651,34.8470446 5.50327495,35.5522747 5.44373812,36.0578509 L5.38461538,36.5599105 L5.38461538,37.0654394 L5.38461538,102.307692 L22.6153846,102.307692 L22.6153846,37.0654394 Z" id="Path-2-Copy" fill="#979C99"></path>
                <path d="M17.2307692,37.0654394 L17.1716465,38.0730279 C17.1794649,38.0539915 17.2085414,37.9040343 17.2501484,37.7173747 C17.3884987,37.0967015 17.5979639,36.368398 17.8913108,35.5604901 C18.7652142,33.153669 20.127004,30.7191269 22.0775743,28.4344518 C27.9752111,21.5266341 37.966393,17.2307692 53.8442849,17.2307692 C69.7228444,17.2307692 79.715273,21.5257576 85.6140421,28.4319572 C87.5648542,30.7159419 88.9268724,33.1496578 89.8010113,35.5556012 C90.0944189,36.3631641 90.3039412,37.0911352 90.4423419,37.7114996 C90.4839587,37.898042 90.5130418,38.0478913 90.5313338,38.1574218 C90.5343364,38.1754005 90.4615385,37.0571988 90.4615385,37.0571988 L90.4578006,102.307199 L107.68857,102.308186 L107.692308,37.0581858 L107.692337,36.5517123 L107.633022,36.048724 C107.573403,35.543152 107.455637,34.8379816 107.259679,33.9596242 C106.964315,32.6356902 106.550281,31.1971574 105.995995,29.6715623 C104.44815,25.4113398 102.079479,21.1788898 98.7161245,17.2411197 C89.4315607,6.37087701 74.6095104,-3.06079948e-14 53.8442849,0 C33.0783919,3.06079948e-14 18.2564965,6.37290567 8.97313671,17.2463722 C5.61035817,21.1851466 3.2423341,25.4185861 1.6951303,29.6797466 C1.14108966,31.2056322 0.727283353,32.6444228 0.432124565,33.9685775 C0.236311129,34.8470446 0.118659565,35.5522747 0.0591227333,36.0578509 L0,36.5599105 L0,37.0654394 L0,102.307692 L17.2307692,102.307692 L17.2307692,37.0654394 Z" id="Path-2" fill="#D2D2CD"></path>
            </g>
            <g id="lock" transform="translate(117.000000, 251.692308)">
                <rect id="Rectangle-17" fill="#FFD50F" x="0" y="0" width="140" height="140" rx="2"></rect>
                <path d="M126,0 L137.843015,0 C139.034285,0 140,0.968761742 140,2.1569847 L140,137.843015 C140,139.034285 139.031238,140 137.843015,140 L2.1569847,140 C0.965714945,140 0,139.031238 0,137.843015 L0,136.769231 L123.848059,136.769231 C125.040328,136.769231 126,135.804966 126,134.615486 L126,0 L126,0 Z" id="Combined-Shape" fill="#CCCCCC" style="mix-blend-mode: multiply;"></path>
                <path d="M80.7692308,57.6078007 C80.7692308,48.3930822 73.2958301,40.9230769 64.0769231,40.9230769 C54.8580161,40.9230769 47.3846154,48.3930822 47.3846154,57.6078007 C47.3846154,63.9592308 50.935178,69.4817594 56.1606033,72.3005386 L53.4032111,98.4801103 C53.3047903,99.4145498 53.9731439,100.153846 54.8936539,100.153846 L73.2601923,100.153846 C74.17996,100.153846 74.8479962,99.4044891 74.750635,98.4801103 L71.9932428,72.3005386 C77.2186681,69.4817594 80.7692308,63.9592308 80.7692308,57.6078007 Z" id="Combined-Shape" fill="#5D3B35"></path>
            </g>
        </g>
    </g>
</svg>
